<?xml version="1.0" encoding="UTF-8" standalone="no"?>
<!DOCTYPE svg PUBLIC "-//W3C//DTD SVG 1.1//EN" "http://www.w3.org/Graphics/SVG/1.1/DTD/svg11.dtd">
<svg width="100%" height="100%" viewBox="0 0 836 428" version="1.1" xmlns="http://www.w3.org/2000/svg" xmlns:xlink="http://www.w3.org/1999/xlink" xml:space="preserve" xmlns:serif="http://www.serif.com/" style="fill-rule:evenodd;clip-rule:evenodd;stroke-linejoin:round;stroke-miterlimit:1.41421;">
    <g id="Монтажная-область2" serif:id="Монтажная область2" transform="matrix(0.974074,0,0,0.931246,95.4807,-48.9605)">
        <rect x="-98.022" y="52.575" width="858.155" height="459.283" style="fill:none;"/>
        <clipPath id="_clip1">
            <rect x="-98.022" y="52.575" width="858.155" height="459.283"/>
        </clipPath>
        <g clip-path="url(#_clip1)">
            <g id="devices" transform="matrix(1.02662,0,0,1.07383,-17.9451,-1648.48)">
                <g id="imac">
                    <path id="Shape-2" serif:id="Shape 2" d="M106.193,1860.76L575,1860.76L575,1910.96C575,1917.12 570.005,1922.12 563.843,1922.12L117.333,1922.12C111.171,1922.12 106.176,1917.12 106.176,1910.96L106.176,1871.91C106.176,1865.75 106.193,1860.76 106.193,1860.76Z" style="fill:rgb(231,235,239);"/>
                    <path id="Shape-4" serif:id="Shape 4" d="M286.819,1922.45C286.819,1922.45 283.695,1965.96 279.79,1965.74C279.79,1965.74 257.364,1968.98 259.819,1969.87C259.819,1969.87 257.699,1971.21 268.856,1971.43L412.112,1971.43C412.112,1971.43 421.484,1971.77 420.145,1969.64C420.145,1969.64 416.452,1967.54 399.828,1965.75C399.828,1965.75 396.708,1967.41 393.25,1922.12L286.819,1922.45Z" style="fill:rgb(231,235,239);"/>
                    <path id="Shape-5" serif:id="Shape 5" d="M286.805,1922.12L393.25,1922.12L393.696,1931.17L286.141,1931.17L286.805,1922.12Z" style="fill:rgb(215,219,225);"/>
                    <path id="Shape-7" serif:id="Shape 7" d="M117.333,1584.5L563.843,1584.5C570.005,1584.5 575,1589.5 575,1595.66L575,1878.83L106.193,1878.83C106.193,1878.83 106.176,1873.84 106.176,1867.67L106.176,1595.66C106.176,1589.5 111.171,1584.5 117.333,1584.5Z" style="fill:rgb(71,77,93);"/>
                    <rect id="Shape-6" serif:id="Shape 6" x="126.259" y="1603.25" width="429.105" height="257.061" style="fill:rgb(112,197,235);"/>
                    <path id="Shape-3" serif:id="Shape 3" d="M340.923,1590.52C342.648,1590.52 344.047,1591.92 344.047,1593.64C344.047,1595.37 342.648,1596.77 340.923,1596.77C339.197,1596.77 337.799,1595.37 337.799,1593.64C337.799,1591.92 339.197,1590.52 340.923,1590.52Z" style="fill:rgb(165,165,165);"/>
                    <path id="Shape-8" serif:id="Shape 8" d="M340.476,1888.2C346.638,1888.2 351.633,1893.2 351.633,1899.36C351.633,1905.52 346.638,1910.52 340.476,1910.52C334.314,1910.52 329.319,1905.52 329.319,1899.36C329.319,1893.2 334.314,1888.2 340.476,1888.2Z" style="fill:rgb(71,77,93);"/>
                </g>
                <g id="macbook-retina" serif:id="macbook retina">
                    <path id="Shape-1" serif:id="Shape 1" d="M-30.572,1787.08L266.907,1787.08C272.615,1787.08 277.243,1791.71 277.243,1797.42L277.243,1996.7C277.243,2002.41 272.615,2007.04 266.907,2007.04L-30.572,2007.04C-36.281,2007.04 -40.908,2002.41 -40.908,1996.7L-40.908,1797.42C-40.908,1791.71 -36.281,1787.08 -30.572,1787.08Z" style="fill:rgb(71,77,93);"/>
                    <path id="Shape-31" serif:id="Shape 3" d="M118.064,1791.93C119.092,1791.93 119.925,1792.76 119.925,1793.79C119.925,1794.82 119.092,1795.65 118.064,1795.65C117.037,1795.65 116.204,1794.82 116.204,1793.79C116.204,1792.76 117.037,1791.93 118.064,1791.93Z" style="fill:rgb(165,163,163);"/>
                    <path id="Shape-71" serif:id="Shape 7" d="M-78.111,1999.8C-78.111,1999.8 -78.591,2012 -40.905,2012L277.04,2012C277.04,2012 314.049,2011.57 314.049,1999.8L-78.111,1999.8Z" style="fill:rgb(231,235,239);"/>
                    <path id="Shape-51" serif:id="Shape 5" d="M90.776,1999.8C90.776,1999.8 91.448,2004.04 94.756,2004.04L141.527,2004.04C141.527,2004.04 144.835,2003.63 145.61,1999.8L90.776,1999.8Z" style="fill:rgb(191,194,198);"/>
                    <rect id="Shape-61" serif:id="Shape 6" x="-30.985" y="1799.28" width="298.099" height="186.054" style="fill:rgb(247,145,49);"/>
                </g>
                <g id="ipad">
                    <path id="device" d="M461.957,1749.61L618.934,1749.61C623.253,1749.61 626.754,1753.11 626.754,1757.42L626.754,1986.44C626.754,1990.76 623.253,1994.26 618.934,1994.26L461.957,1994.26C457.639,1994.26 454.138,1990.76 454.138,1986.44L454.138,1757.42C454.138,1753.11 457.639,1749.61 461.957,1749.61Z" style="fill:rgb(71,77,93);"/>
                    <rect id="overlay" x="465.378" y="1771.5" width="150.232" height="200.962" style="fill:rgb(253,233,163);"/>
                    <path id="camera" d="M540.342,1759.32C541.111,1759.32 541.734,1759.95 541.734,1760.72C541.734,1761.49 541.111,1762.11 540.342,1762.11C539.572,1762.11 538.949,1761.49 538.949,1760.72C538.949,1759.95 539.572,1759.32 540.342,1759.32Z" style="fill:rgb(165,165,165);"/>
                    <path id="back-button" serif:id="back button" d="M540.397,1977.83C543.6,1977.83 546.197,1980.43 546.197,1983.63C546.197,1986.83 543.6,1989.43 540.397,1989.43C537.194,1989.43 534.598,1986.83 534.598,1983.63C534.598,1980.43 537.194,1977.83 540.397,1977.83Z" style="fill:rgb(246,246,246);"/>
                </g>
                <g id="ipad-mini" serif:id="ipad mini">
                    <path id="device1" serif:id="device" d="M645.489,1799.6L752.989,1799.6C755.947,1799.6 758.344,1802 758.344,1804.96L758.344,1961.79C758.344,1964.75 755.947,1967.14 752.989,1967.14L645.489,1967.14C642.531,1967.14 640.134,1964.75 640.134,1961.79L640.134,1804.96C640.134,1802 642.531,1799.6 645.489,1799.6Z" style="fill:rgb(71,77,93);"/>
                    <rect id="overlay1" serif:id="overlay" x="647.832" y="1814.6" width="102.882" height="137.622" style="fill:rgb(56,220,200);"/>
                    <path id="camera1" serif:id="camera" d="M699.168,1806.26C699.694,1806.26 700.121,1806.68 700.121,1807.21C700.121,1807.74 699.694,1808.16 699.168,1808.16C698.641,1808.16 698.214,1807.74 698.214,1807.21C698.214,1806.68 698.641,1806.26 699.168,1806.26Z" style="fill:rgb(165,165,165);"/>
                    <path id="back-button1" serif:id="back button" d="M699.206,1955.89C701.399,1955.89 703.178,1957.67 703.178,1959.87C703.178,1962.06 701.399,1963.84 699.206,1963.84C697.012,1963.84 695.234,1962.06 695.234,1959.87C695.234,1957.67 697.012,1955.89 699.206,1955.89Z" style="fill:rgb(246,246,246);"/>
                </g>
                <g id="iphone5">
                    <path id="device2" serif:id="device" d="M601.14,1846.28L654.07,1846.28C659.774,1846.28 664.398,1850.9 664.398,1856.6L664.398,1991.64C664.398,1997.34 659.774,2001.97 654.07,2001.97L601.14,2001.97C595.436,2001.97 590.812,1997.34 590.812,1991.64L590.812,1856.6C590.812,1850.9 595.436,1846.28 601.14,1846.28Z" style="fill:rgb(71,78,93);"/>
                    <path id="camera2" serif:id="camera" d="M627.541,1852.6C628.289,1852.6 628.896,1853.21 628.896,1853.96C628.896,1854.71 628.289,1855.31 627.541,1855.31C626.792,1855.31 626.185,1854.71 626.185,1853.96C626.185,1853.21 626.792,1852.6 627.541,1852.6Z" style="fill:rgb(164,164,164);"/>
                    <path id="speaker" d="M621.989,1858.41L632.963,1858.41C633.711,1858.41 634.318,1859.02 634.318,1859.77C634.318,1860.51 633.711,1861.12 632.963,1861.12L621.989,1861.12C621.241,1861.12 620.634,1860.51 620.634,1859.77C620.634,1859.02 621.241,1858.41 621.989,1858.41Z" style="fill:rgb(164,164,164);"/>
                    <path id="back-button2" serif:id="back button" d="M627.476,1984.03C631.184,1984.03 634.189,1987.04 634.189,1990.74C634.189,1994.45 631.184,1997.46 627.476,1997.46C623.769,1997.46 620.763,1994.45 620.763,1990.74C620.763,1987.04 623.769,1984.03 627.476,1984.03Z" style="fill:rgb(245,246,246);"/>
                    <rect id="overlay2" serif:id="overlay" x="595.202" y="1867.7" width="64.549" height="112.961" style="fill:rgb(242,119,122);"/>
                </g>
            </g>
        </g>
    </g>
</svg>
