<?xml version="1.0" encoding="UTF-8" standalone="no"?>
<!DOCTYPE svg PUBLIC "-//W3C//DTD SVG 1.1//EN" "http://www.w3.org/Graphics/SVG/1.1/DTD/svg11.dtd">
<svg width="100%" height="100%" viewBox="0 0 408 579" version="1.1" xmlns="http://www.w3.org/2000/svg" xmlns:xlink="http://www.w3.org/1999/xlink" xml:space="preserve" xmlns:serif="http://www.serif.com/" style="fill-rule:evenodd;clip-rule:evenodd;stroke-linejoin:round;stroke-miterlimit:1.41421;">
    <g id="Монтажная-область1" serif:id="Монтажная область1" transform="matrix(0.725081,0,0,0.838419,22.5025,97.5857)">
        <rect x="-31.034" y="-116.392" width="561.831" height="689.65" style="fill:none;"/>
        <g id="ipad-flat-" serif:id="ipad flat " transform="matrix(1.37916,0,0,1.19272,-1302.1,-1071.72)">
            <path id="device" d="M940.38,802.115L1310.54,802.115C1320.72,802.115 1328.98,810.371 1328.98,820.554L1328.98,1360.58C1328.98,1370.76 1320.72,1379.02 1310.54,1379.02L940.38,1379.02C930.197,1379.02 921.941,1370.76 921.941,1360.58L921.941,820.554C921.941,810.371 930.197,802.115 940.38,802.115Z" style="fill:rgb(71,77,93);"/>
            <rect id="overlay" x="948.447" y="853.744" width="354.254" height="473.875" style="fill:rgb(253,233,163);"/>
            <path id="camera" d="M1125.21,825.03C1127.03,825.03 1128.5,826.501 1128.5,828.314C1128.5,830.128 1127.03,831.598 1125.21,831.598C1123.4,831.598 1121.93,830.128 1121.93,828.314C1121.93,826.501 1123.4,825.03 1125.21,825.03Z" style="fill:rgb(165,165,165);"/>
            <path id="back-button" serif:id="back button" d="M1125.35,1340.28C1132.9,1340.28 1139.02,1346.41 1139.02,1353.96C1139.02,1361.51 1132.9,1367.63 1125.35,1367.63C1117.79,1367.63 1111.67,1361.51 1111.67,1353.96C1111.67,1346.41 1117.79,1340.28 1125.35,1340.28Z" style="fill:rgb(246,246,246);"/>
        </g>
    </g>
</svg>
