<?xml version="1.0" encoding="UTF-8" standalone="no"?>
<!DOCTYPE svg PUBLIC "-//W3C//DTD SVG 1.1//EN" "http://www.w3.org/Graphics/SVG/1.1/DTD/svg11.dtd">
<svg width="100%" height="100%" viewBox="0 0 228 482" version="1.1" xmlns="http://www.w3.org/2000/svg" xmlns:xlink="http://www.w3.org/1999/xlink" xml:space="preserve" xmlns:serif="http://www.serif.com/" style="fill-rule:evenodd;clip-rule:evenodd;stroke-linejoin:round;stroke-miterlimit:1.41421;">
    <g id="Монтажная-область1" serif:id="Монтажная область1" transform="matrix(0.984265,0,0,0.95509,-78.812,1.30326)">
        <rect x="80.072" y="-1.365" width="231.322" height="503.758" style="fill:none;"/>
        <clipPath id="_clip1">
            <rect x="80.072" y="-1.365" width="231.322" height="503.758"/>
        </clipPath>
        <g clip-path="url(#_clip1)">
            <g id="iphone5" transform="matrix(1.01599,0,0,1.04702,-154.67,-403.383)">
                <path id="device" d="M262.917,383.441L426.433,383.441C444.054,383.441 458.339,397.726 458.339,415.347L458.339,832.513C458.339,850.134 444.054,864.418 426.433,864.418L262.917,864.418C245.296,864.418 231.011,850.134 231.011,832.513L231.011,415.347C231.011,397.726 245.296,383.441 262.917,383.441Z" style="fill:rgb(71,78,93);"/>
                <path id="camera" d="M344.475,402.99C346.788,402.99 348.663,404.865 348.663,407.177C348.663,409.49 346.788,411.365 344.475,411.365C342.163,411.365 340.288,409.49 340.288,407.177C340.288,404.865 342.163,402.99 344.475,402.99Z" style="fill:rgb(164,164,164);"/>
                <path id="speaker" d="M327.326,420.931L361.226,420.931C363.539,420.931 365.413,422.805 365.413,425.118C365.413,427.431 363.539,429.306 361.226,429.306L327.326,429.306C325.013,429.306 323.139,427.431 323.139,425.118C323.139,422.805 325.013,420.931 327.326,420.931Z" style="fill:rgb(164,164,164);"/>
                <path id="back-button" serif:id="back button" d="M344.276,809.006C355.73,809.006 365.015,818.291 365.015,829.744C365.015,841.198 355.73,850.483 344.276,850.483C332.822,850.483 323.537,841.198 323.537,829.744C323.537,818.291 332.822,809.006 344.276,809.006Z" style="fill:rgb(245,246,246);"/>
                <rect id="overlay" x="244.571" y="449.646" width="199.41" height="348.967" style="fill:rgb(242,119,122);"/>
            </g>
        </g>
    </g>
</svg>
